<?xml version="1.0"?>
<svg xmlns="http://www.w3.org/2000/svg" height="512px" viewBox="0 0 444 444" width="512px" class=""><g><path d="m7 0h181c3.867188 0 7 3.132812 7 7v181c0 3.867188-3.132812 7-7 7h-181c-3.867188 0-7-3.132812-7-7v-181c0-3.867188 3.132812-7 7-7zm0 0" data-original="#000000" class="active-path" data-old_color="#000000" fill="#49A84E"/><path d="m256 0h181c3.867188 0 7 3.132812 7 7v181c0 3.867188-3.132812 7-7 7h-181c-3.867188 0-7-3.132812-7-7v-181c0-3.867188 3.132812-7 7-7zm0 0" data-original="#000000" class="active-path" data-old_color="#000000" fill="#49A84E"/><path d="m7 249h181c3.867188 0 7 3.132812 7 7v181c0 3.867188-3.132812 7-7 7h-181c-3.867188 0-7-3.132812-7-7v-181c0-3.867188 3.132812-7 7-7zm0 0" data-original="#000000" class="active-path" data-old_color="#000000" fill="#49A84E"/><path d="m256 249h181c3.867188 0 7 3.132812 7 7v181c0 3.867188-3.132812 7-7 7h-181c-3.867188 0-7-3.132812-7-7v-181c0-3.867188 3.132812-7 7-7zm0 0" data-original="#000000" class="active-path" data-old_color="#000000" fill="#49A84E"/></g> </svg>
