<svg height="512" viewBox="0 0 58 58" width="512" xmlns="http://www.w3.org/2000/svg"><g id="Page-1" fill="none" fill-rule="evenodd"><g id="001---France" fill-rule="nonzero"><path id="Shape" d="m39 55c2 2 1 3-4 3-3.3722337-.2173536-6.7186185-.7326969-10-1.54l-4-24.46 4-26.03c1.13-.08 2-.45 2-1.97 0-4 4-4 6-4s1 2 4 4c1.45.97 3.6 1.23 6 1.36l5 19.64-5 23.87c-3.47-.04-5.83 4.3-4 6.13z" fill="#ecf0f1"/><path id="Shape" d="m25 5.97v50.49c-2.9269088-.720589-5.9061808-1.2087749-8.91-1.46-4 0-11.02-1.76-11.09-4-.08-3 2-2 6-2s8-9 5-11-2-5-4-10-4-8-8-8-4-3-4-4 0-3 1-3c4 0 4 2 7 2s3-2 3-3-4-5-1-5 2 2 5 2c1.7186853.02460049 3.422983-.31625906 5-1 .62-2.48 3.16-1.89 5-2.03z" fill="#285680"/><path id="Shape" d="m58 46c0 2-1 5-4 5-1.2968113.0559567-2.5593316-.4251757-3.49-1.33-.3046214-.3093249-.7759631-.3824642-1.16-.18-.89.47-2.18.3-5.35-.49-.3263569-.0861514-.6624635-.1298452-1-.13v-43.51c2.6783933.02506631 5.3516871.23892982 8 .64 2.0904416.38635174 4.1469045.93808568 6.15 1.65.476861.17756289.7408709.68827061.61 1.18-.4694851 1.6845698-.7248298 3.4215851-.76 5.17 0 3 0 3-3 5-1.7382099 1.0947728-2.8520051 2.9510982-3 5 0 0 1-1 4 0s2 6 0 8-3 4-1 8 4 4 4 6z" fill="#e64c3c"/></g></g></svg>